<svg width="45" height="45" viewBox="0 0 45 45" fill="none" xmlns="http://www.w3.org/2000/svg">
<path d="M18.1172 22.5C18.1172 24.8785 20.0453 26.8066 22.4238 26.8066C24.8024 26.8066 26.7305 24.8785 26.7305 22.5C26.7305 20.1215 24.8024 18.1934 22.4238 18.1934C20.0453 18.1934 18.1172 20.1215 18.1172 22.5Z" fill="#CACACA"/>
<path d="M12.3522 14.8801C12.5592 14.3191 12.8895 13.8113 13.3187 13.3945C13.7355 12.9654 14.2429 12.6351 14.8042 12.4281C15.2595 12.2513 15.9434 12.0408 17.203 11.9835C18.5657 11.9213 18.9742 11.908 22.4239 11.908C25.874 11.908 26.2825 11.921 27.6448 11.9831C28.9045 12.0408 29.5887 12.2513 30.0436 12.4281C30.605 12.6351 31.1127 12.9654 31.5292 13.3945C31.9583 13.8113 32.2886 14.3188 32.496 14.8801C32.6728 15.3354 32.8832 16.0196 32.9406 17.2792C33.0027 18.6415 33.0161 19.0501 33.0161 22.5002C33.0161 25.9499 33.0027 26.3584 32.9406 27.7211C32.8832 28.9807 32.6728 29.6646 32.496 30.1199C32.2886 30.6812 31.9587 31.1886 31.5295 31.6054C31.1127 32.0346 30.6053 32.3648 30.044 32.5719C29.5887 32.749 28.9045 32.9595 27.6448 33.0168C26.2825 33.079 25.8743 33.092 22.4243 33.092C18.9739 33.092 18.5653 33.079 17.2034 33.0168C15.9437 32.9595 15.2595 32.749 14.8042 32.5719C13.6774 32.1372 12.7868 31.2466 12.3522 30.1199C12.1754 29.6646 11.9649 28.9807 11.9073 27.7211C11.8451 26.3584 11.8321 25.9499 11.8321 22.5002C11.8321 19.0501 11.8451 18.6415 11.9073 17.2792C11.9646 16.0196 12.175 15.3354 12.3522 14.8801ZM22.4239 29.1342C26.0882 29.1342 29.0586 26.1641 29.0586 22.4998C29.0586 18.8355 26.0882 15.8654 22.4239 15.8654C18.76 15.8654 15.7896 18.8355 15.7896 22.4998C15.7896 26.1641 18.76 29.1342 22.4239 29.1342ZM15.5273 17.1536C16.3835 17.1536 17.0777 16.4594 17.0777 15.6031C17.0777 14.7469 16.3835 14.0527 15.5273 14.0527C14.671 14.0527 13.9768 14.7469 13.9768 15.6031C13.9771 16.4594 14.671 17.1536 15.5273 17.1536Z" fill="#CACACA"/>
<path d="M22.6204 0C34.9364 0 44.9238 9.98747 44.9238 22.3034C44.9238 34.6194 34.9364 44.6069 22.6204 44.6069C10.3044 44.6069 0.316959 34.6194 0.316959 22.3034C0.316959 9.98747 10.3044 0 22.6204 0ZM9.89059 27.5836C9.95253 28.9469 10.1693 29.8777 10.4858 30.6924C11.1512 32.4127 12.5111 33.7727 14.2314 34.438C15.0458 34.7545 15.9769 34.971 17.3399 35.0332C18.7057 35.0955 19.1419 35.1105 22.6201 35.1105C26.0985 35.1105 26.5345 35.0955 27.9005 35.0332C29.2635 34.971 30.1946 34.7545 31.009 34.438C31.8639 34.1164 32.6378 33.6124 33.2776 32.9607C33.929 32.3212 34.433 31.547 34.7546 30.6924C35.0711 29.878 35.2879 28.9469 35.3498 27.5839C35.4128 26.2178 35.4274 25.7815 35.4274 22.3034C35.4274 18.8253 35.4128 18.389 35.3502 17.0233C35.2883 15.66 35.0718 14.7292 34.7553 13.9145C34.4337 13.0599 33.9293 12.2857 33.2776 11.6462C32.6382 10.9945 31.8639 10.4905 31.0094 10.1689C30.1946 9.85236 29.2638 9.63592 27.9005 9.57364C26.5348 9.51136 26.0985 9.49638 22.6204 9.49638C19.1423 9.49638 18.706 9.51136 17.3403 9.57398C15.9769 9.63592 15.0462 9.85236 14.2314 10.1685C13.3769 10.4901 12.6026 10.9945 11.9628 11.6462C11.3114 12.286 10.8071 13.0599 10.4858 13.9145C10.169 14.7292 9.95253 15.66 9.89025 17.0233C9.82798 18.389 9.81334 18.8253 9.81334 22.3034C9.81334 25.7815 9.82798 26.2178 9.89059 27.5836Z" fill="#CACACA"/>
</svg>
