<svg width="40" height="40" viewBox="0 0 40 40" fill="none" xmlns="http://www.w3.org/2000/svg">
<g clip-path="url(#clip0_113719_28)">
<path d="M20 40.0001C31.0457 40.0001 40 31.0458 40 20.0001C40 8.95443 31.0457 0.00012207 20 0.00012207C8.95431 0.00012207 0 8.95443 0 20.0001C0 31.0458 8.95431 40.0001 20 40.0001Z" fill="url(#paint0_linear_113719_28)"/>
<path fill-rule="evenodd" clip-rule="evenodd" d="M9.05321 19.789L20.7168 14.765C26.2711 12.4548 27.4251 12.0535 28.1774 12.0403C28.3429 12.0374 28.7128 12.0784 28.9524 12.2728C29.1548 12.437 29.2104 12.6588 29.2371 12.8144C29.2637 12.97 29.2969 13.3247 29.2705 13.6018C28.9695 16.7642 27.6671 24.4387 27.0046 27.9807C26.7242 29.4795 26.1726 29.9821 25.6378 30.0312C24.4763 30.1381 23.5944 29.2636 22.4694 28.5263L18.0061 25.5281C16.0314 24.2269 17.3115 23.5117 18.4369 22.3429C18.7314 22.0369 23.8487 17.3824 23.9477 16.9601C23.9597 16.9073 23.9716 16.7105 23.8547 16.6065C23.7377 16.5025 23.565 16.5385 23.4405 16.5664C23.264 16.6065 20.452 18.4651 15.0044 22.1424C14.2062 22.6905 13.4832 22.9576 12.8355 22.9436C12.1214 22.9282 10.7478 22.5399 9.72661 22.2079C8.47408 21.8008 7.4786 21.5855 7.56532 20.8941C7.61044 20.5339 8.1064 20.1657 9.05317 19.7891L9.05321 19.789Z" fill="white"/>
</g>
<defs>
<linearGradient id="paint0_linear_113719_28" x1="20" y1="0.00012207" x2="20" y2="39.7034" gradientUnits="userSpaceOnUse">
<stop stop-color="#2AABEE"/>
<stop offset="1" stop-color="#229ED9"/>
</linearGradient>
<clipPath id="clip0_113719_28">
<rect width="40" height="40" fill="white" transform="translate(0 0.00012207)"/>
</clipPath>
</defs>
</svg>
