<svg width="40" height="40" viewBox="0 0 40 40" fill="none" xmlns="http://www.w3.org/2000/svg">
<g clip-path="url(#clip0_113719_25)">
<path d="M20 39.3751C30.7005 39.3751 39.375 30.7006 39.375 20.0001C39.375 9.29961 30.7005 0.625122 20 0.625122C9.29948 0.625122 0.625 9.29961 0.625 20.0001C0.625 30.7006 9.29948 39.3751 20 39.3751Z" fill="#30BF39"/>
<path d="M25.875 21.751C25.625 21.626 24.3125 20.876 24.0625 20.8135C23.8125 20.6885 23.625 20.6885 23.4375 20.9385C23.25 21.1885 22.6875 21.8135 22.5625 21.9385C22.375 22.126 22.25 22.126 22 22.001C21.75 21.876 20.875 21.5635 19.875 20.5635C19.125 19.8135 18.5625 18.9385 18.4375 18.626C18.3125 18.376 18.4375 18.1885 18.5625 18.0635C18.6875 17.9385 18.8125 17.751 19 17.626C19.1875 17.501 19.1875 17.376 19.3125 17.1885C19.4375 17.001 19.375 16.876 19.3125 16.6885C19.25 16.501 18.75 15.1885 18.5625 14.626C18.375 14.0635 18.125 14.1885 18 14.126C17.8125 14.126 17.6875 14.0635 17.5 14.0635C17.25 14.0635 16.9375 14.1885 16.75 14.376C16.5 14.626 15.75 15.251 15.75 16.5635C15.75 17.876 16.625 19.251 16.75 19.376C16.875 19.5635 18.5 22.4385 21.1875 23.626C23.875 24.8135 23.875 24.4385 24.375 24.4385C24.875 24.4385 26 23.8135 26.25 23.251C26.5 22.626 26.5 22.0635 26.4375 22.001C26.3125 22.001 26.125 21.9385 25.875 21.751ZM20.875 28.1885C19.125 28.1885 17.5 27.6885 16.0625 26.751L12.6875 27.8135L13.8125 24.5635C12.75 23.0635 12.125 21.251 12.125 19.376C12.125 14.501 16.0625 10.5635 20.9375 10.5635C25.8125 10.5635 29.6875 14.501 29.6875 19.376C29.6875 24.251 25.75 28.1885 20.875 28.1885ZM20.875 8.81348C15.0625 8.81348 10.3125 13.5635 10.3125 19.376C10.3125 21.3135 10.8125 23.1885 11.8125 24.8135L9.875 30.501L15.75 28.626C17.3125 29.501 19.0625 29.9385 20.875 29.9385C26.6875 29.9385 31.4375 25.1885 31.4375 19.376C31.4375 13.5635 26.75 8.81348 20.875 8.81348Z" fill="white"/>
</g>
<defs>
<clipPath id="clip0_113719_25">
<rect width="40" height="40" fill="white" transform="translate(0 0.00012207)"/>
</clipPath>
</defs>
</svg>
