<svg width="188" height="42" viewBox="0 0 188 42" fill="none" xmlns="http://www.w3.org/2000/svg">
<path d="M3.02551 34.5032L0.31463 30.6662H2.27289L4.11424 33.411L5.97021 30.6662H7.91385L5.19567 34.5032L8.05269 38.5105H6.10904L4.11424 35.5742L2.12675 38.5105H0.183105L3.02551 34.5032Z" fill="white"/>
<path d="M8.24267 30.6662H10.1132L11.7573 35.1132C12.0057 35.7468 12.1714 36.3425 12.2542 36.9005H12.3126C12.3565 36.6404 12.4369 36.326 12.5538 35.9572C12.6707 35.5837 13.2893 33.82 14.4097 30.6662H16.2657L12.8095 39.5531C12.1811 41.1843 11.1338 42 9.66752 42C9.28756 42 8.91734 41.9598 8.55686 41.8794V40.5602C8.81504 40.6169 9.10976 40.6453 9.441 40.6453C10.2691 40.6453 10.8512 40.1796 11.1874 39.2481L11.4869 38.5105L8.24267 30.6662Z" fill="white"/>
<path d="M25.2459 41.2836H23.6457V38.5105H18.107V41.2836H16.5214V37.2197H17.1791C17.7539 36.4206 18.2093 35.456 18.5455 34.3259C18.8864 33.1911 19.0886 31.9712 19.1519 30.6662H24.0622V37.2197H25.2459V41.2836ZM22.3743 37.2197V31.9428H20.6352C20.5427 32.9169 20.3478 33.8767 20.0507 34.8224C19.7584 35.7681 19.4004 36.5671 18.9766 37.2197H22.3743Z" fill="white"/>
<path d="M33.912 34.5742C33.912 35.8555 33.5734 36.8556 32.8963 37.5743C32.2192 38.293 31.2766 38.6523 30.0685 38.6523C29.3135 38.6523 28.6461 38.4868 28.0664 38.1559C27.4867 37.8249 27.041 37.3497 26.7292 36.7303C26.4175 36.1109 26.2616 35.3922 26.2616 34.5742C26.2616 33.3022 26.5977 32.3093 27.27 31.5953C27.9422 30.8813 28.8897 30.5244 30.1124 30.5244C31.2815 30.5244 32.207 30.8908 32.889 31.6237C33.571 32.3518 33.912 33.3353 33.912 34.5742ZM28.0299 34.5742C28.0299 36.3851 28.7192 37.2906 30.0977 37.2906C31.4617 37.2906 32.1437 36.3851 32.1437 34.5742C32.1437 32.7821 31.4568 31.8861 30.0831 31.8861C29.3622 31.8861 28.8385 32.1178 28.5121 32.5812C28.1906 33.0445 28.0299 33.7089 28.0299 34.5742Z" fill="white"/>
<path d="M39.8744 34.4749V30.6662H41.4747V34.4749L44.5874 30.6662H46.3995L43.221 34.4607L46.6845 38.5105H44.792L41.4747 34.5316V38.5105H39.8744V34.5316L36.5644 38.5105H34.6792L38.1354 34.4607L34.9642 30.6662H36.7763L39.8744 34.4749Z" fill="white"/>
<path d="M51.4632 38.6523C50.2065 38.6523 49.2225 38.2977 48.5112 37.5885C47.8049 36.8745 47.4517 35.8934 47.4517 34.6451C47.4517 33.3637 47.7805 32.3566 48.4382 31.6237C49.0958 30.8908 49.9994 30.5244 51.149 30.5244C52.2159 30.5244 53.0586 30.8388 53.6773 31.4677C54.2959 32.0965 54.6052 32.9618 54.6052 34.0635V34.9642H49.22C49.2444 35.7255 49.4563 36.3118 49.8557 36.7232C50.2552 37.1298 50.8178 37.3331 51.5436 37.3331C52.021 37.3331 52.4643 37.2906 52.8735 37.2055C53.2875 37.1156 53.7308 36.969 54.2034 36.7657V38.1204C53.7844 38.3143 53.3606 38.4514 52.9319 38.5318C52.5033 38.6121 52.0137 38.6523 51.4632 38.6523ZM51.149 31.7868C50.6035 31.7868 50.165 31.9547 49.8338 32.2904C49.5074 32.6261 49.3126 33.1155 49.2492 33.7585H52.9173C52.9076 33.1107 52.7468 32.6214 52.4351 32.2904C52.1233 31.9547 51.6946 31.7868 51.149 31.7868Z" fill="white"/>
<path d="M59.8151 38.6523C58.5924 38.6523 57.662 38.3072 57.0238 37.6168C56.3906 36.9218 56.0739 35.9265 56.0739 34.6309C56.0739 33.3117 56.4052 32.2975 57.0677 31.5882C57.735 30.879 58.6971 30.5244 59.9539 30.5244C60.8064 30.5244 61.5736 30.678 62.2556 30.9854L61.7368 32.3258C61.011 32.0516 60.4118 31.9145 59.9393 31.9145C58.5412 31.9145 57.8422 32.8152 57.8422 34.6167C57.8422 35.4962 58.0151 36.1581 58.361 36.6026C58.7117 37.0423 59.2232 37.2622 59.8955 37.2622C60.6603 37.2622 61.3836 37.0778 62.0656 36.709V38.1629C61.7587 38.3379 61.4299 38.4632 61.0792 38.5388C60.7333 38.6145 60.312 38.6523 59.8151 38.6523Z" fill="white"/>
<path d="M70.0375 30.6662V31.9712H67.407V38.5105H65.6826V31.9712H63.0521V30.6662H70.0375Z" fill="white"/>
<path d="M78.6086 32.6734C78.6086 33.6001 78.0508 34.1604 76.9353 34.3543V34.411C77.5588 34.482 78.0362 34.6735 78.3674 34.9855C78.6987 35.2976 78.8643 35.7019 78.8643 36.1983C78.8643 36.9407 78.572 37.5128 77.9875 37.9147C77.4078 38.3119 76.5626 38.5105 75.4519 38.5105H71.5939V30.6662H75.4373C77.5515 30.6662 78.6086 31.3353 78.6086 32.6734ZM77.1033 36.099C77.1033 35.7208 76.9523 35.4536 76.6503 35.2976C76.3483 35.1368 75.8952 35.0564 75.2912 35.0564H73.311V37.2764H75.335C76.5139 37.2764 77.1033 36.8839 77.1033 36.099ZM76.8914 32.8152C76.8914 32.5032 76.7648 32.2786 76.5115 32.1414C76.263 31.9996 75.8904 31.9287 75.3935 31.9287H73.311V33.8153H75.1377C75.7126 33.8153 76.1485 33.7443 76.4457 33.6025C76.7428 33.4559 76.8914 33.1935 76.8914 32.8152Z" fill="white"/>
<path d="M84.1691 38.6523C82.9123 38.6523 81.9283 38.2977 81.2171 37.5885C80.5108 36.8745 80.1576 35.8934 80.1576 34.6451C80.1576 33.3637 80.4864 32.3566 81.1441 31.6237C81.8017 30.8908 82.7053 30.5244 83.8549 30.5244C84.9218 30.5244 85.7645 30.8388 86.3831 31.4677C87.0018 32.0965 87.3111 32.9618 87.3111 34.0635V34.9642H81.9259C81.9503 35.7255 82.1622 36.3118 82.5616 36.7232C82.9611 37.1298 83.5237 37.3331 84.2495 37.3331C84.7269 37.3331 85.1702 37.2906 85.5794 37.2055C85.9934 37.1156 86.4367 36.969 86.9092 36.7657V38.1204C86.4903 38.3143 86.0665 38.4514 85.6378 38.5318C85.2092 38.6121 84.7196 38.6523 84.1691 38.6523ZM83.8549 31.7868C83.3094 31.7868 82.8709 31.9547 82.5397 32.2904C82.2133 32.6261 82.0185 33.1155 81.9551 33.7585H85.6232C85.6135 33.1107 85.4527 32.6214 85.141 32.2904C84.8292 31.9547 84.4005 31.7868 83.8549 31.7868Z" fill="white"/>
<path d="M90.9792 30.6662V33.8153H94.7861V30.6662H96.5033V38.5105H94.7861V35.1274H90.9792V38.5105H89.2621V30.6662H90.9792Z" fill="white"/>
<path d="M100.683 30.6662V33.8153H104.49V30.6662H106.207V38.5105H104.49V35.1274H100.683V38.5105H98.9657V30.6662H100.683Z" fill="white"/>
<path d="M113.726 38.5105L113.382 37.4182H113.324C112.934 37.8958 112.542 38.2221 112.147 38.397C111.753 38.5672 111.246 38.6523 110.628 38.6523C109.834 38.6523 109.212 38.4443 108.764 38.0282C108.321 37.6121 108.099 37.0234 108.099 36.2622C108.099 35.4536 108.409 34.8437 109.027 34.4323C109.646 34.0209 110.589 33.7963 111.855 33.7585L113.251 33.716V33.2975C113.251 32.7963 113.129 32.4228 112.885 32.1769C112.647 31.9263 112.274 31.801 111.767 31.801C111.353 31.801 110.956 31.8601 110.576 31.9783C110.196 32.0965 109.831 32.236 109.48 32.3968L108.925 31.2052C109.363 30.983 109.843 30.8151 110.365 30.7017C110.886 30.5835 111.378 30.5244 111.841 30.5244C112.868 30.5244 113.643 30.7419 114.164 31.1769C114.69 31.6119 114.953 32.2951 114.953 33.2266V38.5105H113.726ZM111.168 37.3757C111.792 37.3757 112.291 37.2078 112.666 36.8721C113.046 36.5317 113.236 36.0565 113.236 35.4465V34.7657L112.199 34.8082C111.39 34.8366 110.801 34.969 110.43 35.2054C110.065 35.4371 109.882 35.7941 109.882 36.2764C109.882 36.6262 109.989 36.8981 110.204 37.092C110.418 37.2811 110.74 37.3757 111.168 37.3757Z" fill="white"/>
<path d="M118.176 38.5105H116.254L118.504 35.2976C117.959 35.1463 117.53 34.8768 117.218 34.489C116.907 34.0966 116.751 33.6119 116.751 33.0351C116.751 32.2927 117.024 31.7135 117.569 31.2974C118.115 30.8766 118.86 30.6662 119.805 30.6662H123.488V38.5105H121.763V35.4891H120.134L118.176 38.5105ZM118.424 33.0493C118.424 33.4512 118.58 33.7538 118.892 33.9571C119.208 34.1557 119.632 34.255 120.163 34.255H121.763V31.9287H119.893C119.425 31.9287 119.062 32.0256 118.804 32.2195C118.551 32.4133 118.424 32.6899 118.424 33.0493Z" fill="white"/>
<path d="M135.055 30.6662V31.9712H131.547V38.5105H129.83V30.6662H135.055Z" fill="white"/>
<path d="M141.667 38.5105L141.324 37.4182H141.266C140.876 37.8958 140.484 38.2221 140.089 38.397C139.695 38.5672 139.188 38.6523 138.569 38.6523C137.775 38.6523 137.154 38.4443 136.706 38.0282C136.263 37.6121 136.041 37.0234 136.041 36.2622C136.041 35.4536 136.35 34.8437 136.969 34.4323C137.588 34.0209 138.53 33.7963 139.797 33.7585L141.193 33.716V33.2975C141.193 32.7963 141.071 32.4228 140.827 32.1769C140.589 31.9263 140.216 31.801 139.709 31.801C139.295 31.801 138.898 31.8601 138.518 31.9783C138.138 32.0965 137.773 32.236 137.422 32.3968L136.867 31.2052C137.305 30.983 137.785 30.8151 138.306 30.7017C138.828 30.5835 139.32 30.5244 139.782 30.5244C140.81 30.5244 141.585 30.7419 142.106 31.1769C142.632 31.6119 142.895 32.2951 142.895 33.2266V38.5105H141.667ZM139.11 37.3757C139.734 37.3757 140.233 37.2078 140.608 36.8721C140.988 36.5317 141.178 36.0565 141.178 35.4465V34.7657L140.14 34.8082C139.332 34.8366 138.742 34.969 138.372 35.2054C138.007 35.4371 137.824 35.7941 137.824 36.2764C137.824 36.6262 137.931 36.8981 138.146 37.092C138.36 37.2811 138.681 37.3757 139.11 37.3757Z" fill="white"/>
<path d="M151.934 38.5105H150.202V31.9712H147.973C147.837 33.6545 147.652 34.969 147.418 35.9146C147.189 36.8603 146.887 37.5506 146.512 37.9856C146.142 38.4206 145.66 38.6381 145.065 38.6381C144.69 38.6381 144.376 38.5861 144.123 38.4821V37.1771C144.303 37.2433 144.483 37.2764 144.663 37.2764C145.16 37.2764 145.55 36.735 145.832 35.6522C146.12 34.5647 146.344 32.9027 146.505 30.6662H151.934V38.5105Z" fill="white"/>
<path d="M157.925 38.6523C156.669 38.6523 155.685 38.2977 154.973 37.5885C154.267 36.8745 153.914 35.8934 153.914 34.6451C153.914 33.3637 154.243 32.3566 154.9 31.6237C155.558 30.8908 156.462 30.5244 157.611 30.5244C158.678 30.5244 159.521 30.8388 160.139 31.4677C160.758 32.0965 161.067 32.9618 161.067 34.0635V34.9642H155.682C155.707 35.7255 155.918 36.3118 156.318 36.7232C156.717 37.1298 157.28 37.3331 158.006 37.3331C158.483 37.3331 158.926 37.2906 159.336 37.2055C159.75 37.1156 160.193 36.969 160.666 36.7657V38.1204C160.247 38.3143 159.823 38.4514 159.394 38.5318C158.965 38.6121 158.476 38.6523 157.925 38.6523ZM157.611 31.7868C157.066 31.7868 156.627 31.9547 156.296 32.2904C155.97 32.6261 155.775 33.1155 155.711 33.7585H159.38C159.37 33.1107 159.209 32.6214 158.897 32.2904C158.585 31.9547 158.157 31.7868 157.611 31.7868Z" fill="white"/>
<path d="M167.118 38.6523C166.095 38.6523 165.301 38.2953 164.736 37.5814H164.633C164.701 38.2433 164.736 38.6452 164.736 38.7871V42H163.018V30.6662H164.407C164.446 30.8128 164.526 31.1627 164.648 31.7159H164.736C165.271 30.9215 166.075 30.5244 167.147 30.5244C168.155 30.5244 168.939 30.879 169.5 31.5882C170.065 32.2975 170.347 33.2928 170.347 34.5742C170.347 35.8555 170.06 36.8556 169.485 37.5743C168.915 38.293 168.126 38.6523 167.118 38.6523ZM166.701 31.8861C166.019 31.8861 165.52 32.08 165.203 32.4677C164.891 32.8554 164.736 33.4748 164.736 34.3259V34.5742C164.736 35.5293 164.891 36.222 165.203 36.6523C165.515 37.0778 166.024 37.2906 166.73 37.2906C167.325 37.2906 167.783 37.0542 168.104 36.5813C168.426 36.1085 168.586 35.4347 168.586 34.56C168.586 33.6805 168.426 33.0162 168.104 32.567C167.787 32.1131 167.32 31.8861 166.701 31.8861Z" fill="white"/>
<path d="M175.871 38.6523C174.615 38.6523 173.63 38.2977 172.919 37.5885C172.213 36.8745 171.86 35.8934 171.86 34.6451C171.86 33.3637 172.189 32.3566 172.846 31.6237C173.504 30.8908 174.407 30.5244 175.557 30.5244C176.624 30.5244 177.467 30.8388 178.085 31.4677C178.704 32.0965 179.013 32.9618 179.013 34.0635V34.9642H173.628C173.652 35.7255 173.864 36.3118 174.264 36.7232C174.663 37.1298 175.226 37.3331 175.952 37.3331C176.429 37.3331 176.872 37.2906 177.282 37.2055C177.696 37.1156 178.139 36.969 178.611 36.7657V38.1204C178.192 38.3143 177.769 38.4514 177.34 38.5318C176.911 38.6121 176.422 38.6523 175.871 38.6523ZM175.557 31.7868C175.012 31.7868 174.573 31.9547 174.242 32.2904C173.915 32.6261 173.721 33.1155 173.657 33.7585H177.325C177.316 33.1107 177.155 32.6214 176.843 32.2904C176.531 31.9547 176.103 31.7868 175.557 31.7868Z" fill="white"/>
<path d="M181.79 38.5105H179.868L182.119 35.2976C181.573 35.1463 181.144 34.8768 180.833 34.489C180.521 34.0966 180.365 33.6119 180.365 33.0351C180.365 32.2927 180.638 31.7135 181.183 31.2974C181.729 30.8766 182.474 30.6662 183.419 30.6662H187.102V38.5105H185.378V35.4891H183.748L181.79 38.5105ZM182.038 33.0493C182.038 33.4512 182.194 33.7538 182.506 33.9571C182.823 34.1557 183.246 34.255 183.777 34.255H185.378V31.9287H183.507C183.039 31.9287 182.676 32.0256 182.418 32.2195C182.165 32.4133 182.038 32.6899 182.038 33.0493Z" fill="white"/>
<path d="M0 22.7342H12.6452C17.6323 22.7342 20.1851 20.542 20.1851 16.3686V16.3037C20.1851 13.2021 18.5621 11.3184 15.4346 10.7825V10.4902C18.055 10.0031 19.4243 8.3467 19.4243 5.65108V5.56988C19.4243 1.89993 17.0407 0 12.3748 0H0V22.7342ZM4.9871 9.30479V3.21527H10.8871C13.2707 3.21527 14.4541 4.22207 14.4541 6.20319V6.26815C14.4541 8.28175 13.2707 9.30479 10.8871 9.30479H4.9871ZM4.9871 19.5027V12.2602H11.0392C13.6596 12.2602 14.9613 13.4619 14.9613 15.8165V15.8815C14.9613 18.2848 13.6596 19.5027 11.0392 19.5027H4.9871Z" fill="white"/>
<path d="M24.8827 0V22.7342H29.8022V0H24.8827Z" fill="white"/>
<path d="M40.0956 23.1564C44.0683 23.1564 46.9592 21.4514 48.0242 18.5609L48.3623 18.6421C47.7199 21.7924 48.3961 23.1564 52.2844 23.1564C52.7746 23.1564 53.2649 23.1077 53.6706 23.0427L54.2454 20.2334L53.4001 20.2172C52.4703 20.201 52.1998 19.9899 52.1998 18.8369V11.0261C52.1998 7.16128 49.5288 5.31006 43.8317 5.31006C37.7795 5.31006 34.7197 7.59972 34.9732 11.562L39.8251 11.9517C39.6222 9.33727 41.0085 8.15184 43.7302 8.15184C46.1646 8.15184 47.3142 9.01249 47.3142 10.9774V11.9355L42.513 12.7799C37.7119 13.6405 34.5337 15.102 34.5337 18.6745V18.7232C34.5337 21.5488 36.5285 23.1564 40.0956 23.1564ZM42.0566 20.0061C40.3999 20.0061 39.5039 19.4378 39.5039 18.2686V18.2361C39.5039 16.5635 41.0761 15.8815 44.1867 15.2969L47.3142 14.7123V15.508C47.3142 18.1224 44.8629 20.0061 42.0566 20.0061Z" fill="white"/>
<path d="M58.3852 22.7342H63.3047V14.8097C63.3047 10.9774 65.1812 8.60652 68.2918 8.60652C70.6078 8.60652 71.7574 9.75947 71.7574 11.9679V22.7342H76.6768V10.8312C76.6768 7.25871 74.496 5.37502 70.4388 5.37502C66.7534 5.37502 64.2345 6.93394 62.7468 10.1817L62.4087 10.0355C63.0849 8.10312 63.3216 6.95017 63.3216 5.68355H58.3852V22.7342Z" fill="white"/>
<path d="M91.3149 23.1402C97.1135 23.1402 100.359 20.8992 100.85 16.5635L95.8794 16.0276C95.6765 18.7557 94.1212 20.136 91.3318 20.136C88.2043 20.136 86.5814 18.2523 86.5814 14.5337V13.738C86.5814 10.1005 88.2212 8.26551 91.2811 8.26551C94.1043 8.26551 95.5751 9.77571 95.7948 12.7961L100.697 12.2602C100.309 7.66468 97.1811 5.27759 91.298 5.27759C84.9078 5.27759 81.5436 8.28175 81.5436 14.0303V14.2414C81.5436 20.0873 84.8739 23.1402 91.3149 23.1402Z" fill="white"/>
<path d="M105.75 22.7342H110.67V14.8097C110.67 10.9774 112.529 8.62276 115.657 8.62276C117.973 8.62276 119.122 9.75947 119.122 11.9679V22.7342H124.042V10.8312C124.042 7.25871 121.844 5.37502 117.804 5.37502C114.084 5.37502 111.582 6.93393 110.112 10.1654L109.757 10.0355C110.416 8.21679 110.653 6.86898 110.67 5.26135V0H105.75V22.7342Z" fill="white"/>
<path d="M134.251 23.1564C138.223 23.1564 141.114 21.4514 142.179 18.5609L142.517 18.6421C141.875 21.7924 142.551 23.1564 146.439 23.1564C146.93 23.1564 147.42 23.1077 147.826 23.0427L148.4 20.2334L147.555 20.2172C146.625 20.201 146.355 19.9899 146.355 18.8369V11.0261C146.355 7.16128 143.684 5.31006 137.987 5.31006C131.935 5.31006 128.875 7.59972 129.128 11.562L133.98 11.9517C133.777 9.33727 135.163 8.15184 137.885 8.15184C140.32 8.15184 141.469 9.01249 141.469 10.9774V11.9355L136.668 12.7799C131.867 13.6405 128.689 15.102 128.689 18.6745V18.7232C128.689 21.5488 130.684 23.1564 134.251 23.1564ZM136.212 20.0061C134.555 20.0061 133.659 19.4378 133.659 18.2686V18.2361C133.659 16.5635 135.231 15.8815 138.342 15.2969L141.469 14.7123V15.508C141.469 18.1224 139.018 20.0061 136.212 20.0061Z" fill="white"/>
<path d="M152.54 22.7342H157.46V15.6054C157.46 11.156 158.897 9.51589 162.65 9.25607L165.067 9.07745L164.492 5.14768C160.52 5.43997 158.677 6.64164 156.851 10.1817L156.53 10.0355C157.324 7.76211 157.51 6.85274 157.477 5.68355H152.54V22.7342Z" fill="white"/>
<path d="M175.935 23.0427C179.587 23.0427 181.971 21.4189 183.171 18.4797L183.526 18.5933C182.951 20.3796 182.647 21.7924 182.63 22.7342H187.6V0H182.681V4.62804C182.681 6.4143 182.934 7.85954 183.543 9.82443L183.205 9.95434C182.004 7.03137 179.604 5.34254 175.935 5.34254C170.864 5.34254 168.193 8.31423 168.193 13.9978V14.4037C168.193 20.0711 170.864 23.0427 175.935 23.0427ZM177.795 20.1198C174.752 20.1198 173.163 18.2523 173.163 14.5661V13.8192C173.163 10.1167 174.752 8.23303 177.795 8.23303C180.973 8.23303 182.681 10.2142 182.681 13.9003V14.4849C182.681 18.1549 180.973 20.1198 177.795 20.1198Z" fill="white"/>
</svg>
